<?xml version="1.0" standalone="no"?>
<!DOCTYPE svg PUBLIC "-//W3C//DTD SVG 20010904//EN"
 "http://www.w3.org/TR/2001/REC-SVG-20010904/DTD/svg10.dtd">
<svg version="1.0" xmlns="http://www.w3.org/2000/svg"
 width="500.000000pt" height="500.000000pt" viewBox="0 0 500.000000 500.000000"
 preserveAspectRatio="xMidYMid meet">
<metadata>
Created by potrace 1.14, written by Peter Selinger 2001-2017
</metadata>
<g transform="translate(0.000000,500.000000) scale(0.100000,-0.100000)"
fill="#000000" stroke="none">
<path d="M3121 4510 c-136 -49 -253 -184 -320 -371 l-10 -26 -52 13 c-73 19
-183 17 -244 -4 -67 -24 -669 -386 -722 -435 -51 -47 -100 -142 -112 -217 -10
-60 1 -151 24 -205 l13 -33 99 30 c54 17 105 38 114 47 9 9 106 162 215 340
208 341 227 368 277 402 26 18 24 13 -14 -27 -41 -42 -127 -179 -132 -208 -1
-6 -9 -18 -17 -28 -8 -9 -26 -39 -39 -65 -14 -26 -41 -77 -62 -113 -20 -36
-56 -101 -79 -145 -24 -44 -50 -91 -59 -104 -18 -29 -21 -30 89 45 86 57 168
96 261 121 91 25 452 24 589 -1 195 -35 294 -83 439 -211 58 -51 150 -115 166
-115 1 0 17 33 36 73 30 65 34 81 34 162 0 80 -3 97 -32 157 -38 81 -99 141
-190 190 l-68 36 -57 -52 c-32 -29 -79 -64 -105 -78 -58 -30 -201 -63 -237
-54 -56 14 -77 97 -36 141 32 34 97 35 128 2 34 -36 27 -46 -30 -49 -45 -3
-53 -6 -53 -23 0 -18 7 -20 76 -20 65 1 86 6 142 33 73 36 166 128 210 207 69
122 103 271 86 374 -29 184 -163 270 -328 211z m169 -52 c49 -25 84 -70 100
-127 14 -52 12 -157 -5 -221 -18 -69 -76 -187 -110 -222 l-25 -27 -51 29 c-27
17 -51 30 -53 30 -1 0 -67 36 -146 80 -79 44 -148 81 -153 83 -11 3 34 123 68
178 33 54 118 143 163 171 39 24 106 46 142 47 14 1 46 -9 70 -21z"/>
<path d="M2473 3499 c-139 -12 -284 -68 -392 -151 -13 -10 -32 -18 -42 -18
-10 0 -26 -11 -35 -25 -12 -18 -39 -31 -102 -50 -160 -48 -337 -108 -374 -126
-41 -21 -62 -54 -74 -114 -4 -22 -16 -52 -28 -68 -15 -20 -22 -51 -28 -115 -4
-48 -9 -100 -10 -116 -6 -61 77 -90 433 -155 118 -22 247 -45 287 -51 40 -7
71 -14 69 -17 -7 -7 -354 44 -502 74 -71 15 -145 26 -163 25 -51 -3 -134 -42
-130 -61 5 -27 55 -43 225 -72 147 -25 166 -30 184 -53 20 -25 83 -65 224
-141 39 -21 112 -62 163 -92 52 -29 95 -53 97 -53 2 0 50 -27 108 -59 57 -33
128 -66 157 -75 67 -20 150 -20 197 -1 31 13 34 13 23 0 -7 -8 -10 -15 -7 -15
47 0 705 389 775 458 24 24 58 73 75 110 29 60 32 76 32 157 -1 72 -5 100 -24
143 -25 56 -41 67 -41 28 0 -26 -41 -66 -67 -66 -10 0 -7 9 11 31 15 17 26 43
26 59 0 58 -21 236 -30 260 -6 14 -30 36 -55 49 -25 13 -77 53 -117 90 -95 86
-156 124 -251 156 -141 47 -421 72 -614 54z m335 -66 c-10 -2 -26 -2 -35 0
-10 3 -2 5 17 5 19 0 27 -2 18 -5z m-432 -16 c-176 -111 -181 -126 -55 -158
67 -17 70 -18 24 -14 -27 2 -99 7 -160 11 -60 4 -116 10 -124 14 -10 6 3 21
50 55 93 69 173 105 234 104 43 0 47 -2 31 -12z m667 -168 c12 -7 34 -22 48
-34 26 -21 26 -22 7 -34 -11 -7 -21 -11 -22 -9 -1 2 -7 15 -14 30 -8 20 -24
31 -59 42 -45 14 -46 15 -15 15 18 1 43 -4 55 -10z m-221 -84 c0 -11 -327
-126 -515 -180 -66 -19 -141 -35 -168 -35 -42 0 -503 61 -566 75 -13 3 -23 12
-23 20 0 11 6 12 23 6 12 -5 78 -16 147 -25 69 -10 171 -24 228 -32 166 -23
210 -19 383 30 158 46 448 141 458 151 8 9 32 1 33 -10z m295 -71 c-3 -3 -12
-4 -19 -1 -8 3 -5 6 6 6 11 1 17 -2 13 -5z m-1589 -48 c-2 -10 -8 -13 -16 -7
-7 4 -10 15 -6 25 8 21 28 6 22 -18z m1849 18 c-3 -4 -100 -30 -214 -60 -114
-29 -237 -62 -273 -73 -82 -26 -84 -26 -98 3 -10 24 -10 24 96 49 221 53 509
100 489 81z m-1840 -66 c-3 -8 -6 -5 -6 6 -1 11 2 17 5 13 3 -3 4 -12 1 -19z
m1910 -20 c37 -69 15 -236 -33 -255 -18 -7 -54 24 -54 46 1 12 3 11 12 -4 17
-31 31 -36 50 -18 23 20 42 116 34 167 -7 43 -30 86 -46 86 -23 0 -45 -57 -51
-134 l-6 -81 -1 68 c-3 127 53 201 95 125z m-1941 -16 c-10 -10 -29 15 -21 28
6 9 10 8 17 -4 6 -10 7 -20 4 -24z m1004 8 c0 -35 -60 -90 -105 -96 l-40 -6
29 24 c18 15 27 31 24 43 -3 17 -11 20 -48 17 -74 -5 -119 -21 -163 -60 -33
-29 -38 -32 -26 -12 37 58 100 84 240 99 46 4 85 9 87 10 1 0 2 -8 2 -19z
m915 -106 c0 -28 -4 -39 -15 -39 -16 0 -26 45 -16 72 11 28 31 7 31 -33z
m-696 10 c40 -29 61 -90 61 -185 0 -74 -4 -93 -27 -140 -16 -30 -40 -60 -55
-69 -25 -13 -31 -13 -55 0 -16 8 -38 35 -51 60 -20 39 -23 57 -20 135 3 102
34 180 78 202 33 17 41 16 69 -3z m470 -178 c-10 -10 -381 -147 -389 -144 -27
9 22 31 190 86 179 58 208 66 199 58z m45 -128 c-34 -56 -277 -418 -280 -418
-3 0 -3 3 -1 8 13 23 98 174 122 217 82 150 99 176 118 190 26 18 51 20 41 3z"/>
<path d="M3409 2868 c-3 -22 -1 -34 4 -29 5 5 7 21 5 37 -3 27 -4 26 -9 -8z"/>
<path d="M2657 2850 c-92 -73 -77 -360 19 -360 78 0 127 191 81 313 -26 67
-56 81 -100 47z m57 -116 c39 -39 1 -145 -42 -118 -24 16 -28 90 -6 115 21 23
28 24 48 3z"/>
<path d="M2697 2697 c3 -23 1 -43 -7 -52 -8 -9 -8 -15 -2 -15 6 0 14 5 17 10
11 17 9 70 -3 82 -8 8 -10 2 -5 -25z"/>
<path d="M1068 1640 c-48 -14 -94 -49 -124 -92 l-29 -41 -3 -208 c-3 -191 -2
-211 17 -247 22 -43 80 -98 118 -113 15 -5 593 -9 1453 -9 l1428 0 48 33 c35
23 57 48 77 86 27 54 27 57 27 240 0 208 -7 237 -71 298 -71 67 24 63 -1518
62 -768 0 -1408 -4 -1423 -9z m2435 -166 c3 -4 58 -6 122 -5 l115 2 0 -35 c0
-34 -2 -36 -34 -36 l-33 0 -6 -82 c-4 -46 -7 -102 -7 -125 l0 -43 -41 0 -41 0
3 120 4 121 -37 -6 c-34 -6 -37 -5 -41 22 -4 25 -5 -7 -11 -202 l-1 -50 -44
-3 -43 -3 7 158 c5 99 11 161 19 165 14 9 60 10 69 2z m-2063 -24 c29 -29 27
-100 -4 -137 l-24 -28 24 -47 24 -47 -31 -22 c-35 -24 -32 -26 -62 32 -33 63
-55 63 -59 2 -3 -48 -3 -48 -38 -48 -40 0 -37 -20 -25 187 8 133 0 124 113
127 50 1 66 -3 82 -19z m270 -14 l0 -34 -62 -7 c-57 -7 -77 -16 -78 -37 0 -5
24 -8 53 -8 50 0 53 -1 55 -27 2 -31 -11 -43 -50 -43 -39 0 -58 -10 -58 -31 0
-16 6 -18 65 -12 l65 6 0 -42 c0 -38 -2 -41 -28 -41 -16 0 -64 -3 -107 -7
l-78 -6 6 152 c4 84 9 157 13 162 3 5 50 9 105 9 l99 0 0 -34z m127 22 c6 -7
19 -35 29 -63 l19 -50 5 60 5 60 36 3 36 3 -4 -148 c-3 -81 -6 -154 -8 -160
-3 -7 -20 -13 -39 -13 -33 0 -36 3 -54 53 -11 28 -23 62 -26 75 -13 41 -26 12
-26 -59 l0 -69 -41 0 -42 0 7 93 c4 50 9 122 13 160 l6 67 37 0 c21 0 42 -6
47 -12z m373 -23 c0 -33 -2 -35 -35 -35 l-35 0 0 -48 c0 -27 -3 -83 -6 -125
l-7 -77 -40 0 -39 0 7 121 7 121 -41 -7 c-38 -6 -41 -5 -41 17 1 67 2 68 121
68 l109 0 0 -35z m370 8 c28 -36 23 -103 -10 -138 l-23 -24 27 -44 c27 -48 26
-51 -21 -76 -21 -11 -24 -8 -48 39 -33 65 -53 66 -57 3 -3 -48 -3 -48 -38 -48
l-35 0 2 70 c1 39 5 107 9 152 7 93 2 89 111 92 56 1 63 -1 83 -26z m239 13
c16 -19 28 -64 47 -171 8 -49 18 -100 21 -112 5 -21 2 -23 -41 -23 -44 0 -46
1 -46 30 0 26 -4 30 -27 30 -35 0 -50 -10 -54 -35 -3 -16 -13 -21 -47 -23 -35
-3 -42 0 -42 15 0 34 87 277 106 296 13 12 71 8 83 -7z m295 -7 c31 -24 35
-75 10 -114 -12 -18 -13 -28 -5 -44 20 -37 13 -81 -18 -112 -28 -27 -34 -29
-112 -29 l-82 0 7 108 c3 59 9 128 12 154 6 45 8 47 43 51 91 9 118 7 145 -14z
m239 10 c12 -7 25 -17 29 -23 13 -20 8 -81 -8 -105 -12 -17 -13 -26 -5 -34 6
-6 11 -29 11 -51 -1 -73 -35 -96 -145 -96 l-77 0 7 100 c4 55 10 123 14 152 6
53 6 53 46 59 67 10 105 10 128 -2z"/>
<path d="M3430 1445 c0 -8 2 -15 4 -15 2 0 6 7 10 15 3 8 1 15 -4 15 -6 0 -10
-7 -10 -15z"/>
<path d="M1327 1393 c-12 -12 -7 -63 6 -63 25 0 64 49 50 64 -8 8 -48 8 -56
-1z"/>
<path d="M2062 1205 c0 -16 2 -22 5 -12 2 9 2 23 0 30 -3 6 -5 -1 -5 -18z"/>
<path d="M2460 1374 c-14 -36 -13 -44 8 -44 23 0 52 30 52 53 0 29 -49 22 -60
-9z"/>
<path d="M2756 1318 c-9 -34 -8 -38 9 -38 10 0 15 10 15 30 0 35 -15 40 -24 8z"/>
<path d="M2830 1220 c0 -8 8 -24 16 -35 16 -19 16 -19 9 5 -9 31 -25 50 -25
30z"/>
<path d="M2995 1369 c-9 -27 -3 -32 29 -20 33 13 35 41 2 41 -16 0 -27 -7 -31
-21z"/>
<path d="M3008 1273 c-11 -3 -18 -14 -18 -28 0 -19 4 -22 21 -18 39 11 36 55
-3 46z"/>
<path d="M3247 1377 c-3 -8 -2 -19 3 -26 10 -17 50 3 50 24 0 19 -46 20 -53 2z"/>
<path d="M3258 1273 c-11 -3 -18 -14 -18 -29 0 -27 3 -28 31 -14 33 18 23 51
-13 43z"/>
<path d="M1623 693 c-9 -3 -13 -28 -13 -74 0 -61 2 -69 19 -69 33 0 51 11 66
41 37 70 -5 130 -72 102z m47 -52 c0 -26 -10 -51 -21 -51 -5 0 -9 16 -9 35 0
24 5 35 15 35 8 0 15 -9 15 -19z"/>
<path d="M1738 693 c-15 -4 -18 -16 -18 -74 0 -55 3 -69 15 -69 8 0 15 9 15
20 0 26 16 26 30 -1 9 -16 14 -18 25 -9 11 9 12 17 4 32 -8 14 -8 23 0 31 15
15 14 50 -1 65 -12 12 -37 14 -70 5z m42 -42 c0 -12 -20 -25 -27 -18 -7 7 6
27 18 27 5 0 9 -4 9 -9z"/>
<path d="M1843 688 c0 -7 -3 -41 -8 -75 -7 -60 -6 -63 14 -63 18 0 21 6 21 48
0 68 13 74 25 10 8 -42 15 -54 31 -56 18 -3 24 7 41 67 11 39 18 73 15 76 -14
14 -31 2 -37 -25 -4 -16 -10 -30 -15 -30 -4 0 -10 14 -13 30 -6 26 -11 30 -40
30 -20 0 -34 -5 -34 -12z"/>
<path d="M2007 693 c-4 -3 -7 -37 -7 -75 l0 -68 45 0 c38 0 45 3 45 20 0 16
-7 20 -31 20 -17 0 -28 4 -24 10 3 6 15 10 26 10 10 0 19 7 19 15 0 8 -9 15
-20 15 -30 0 -24 18 7 22 17 2 29 10 31 21 3 14 -4 17 -41 17 -24 0 -47 -3
-50 -7z"/>
<path d="M2182 691 c-11 -7 -11 -15 2 -46 9 -20 16 -50 16 -66 0 -22 5 -29 20
-29 14 0 20 7 20 24 0 13 9 45 19 69 18 43 18 57 0 57 -5 0 -15 -12 -23 -27
l-14 -28 -11 28 c-12 30 -11 30 -29 18z"/>
<path d="M2306 678 c-20 -29 -21 -102 -1 -118 25 -21 62 -4 75 36 26 78 -32
142 -74 82z m44 -42 c0 -32 -14 -55 -26 -43 -8 8 7 77 17 77 5 0 9 -15 9 -34z"/>
<path d="M2406 678 c-10 -38 -7 -103 6 -116 18 -18 53 -15 71 6 22 24 24 132
3 132 -10 0 -17 -17 -21 -55 -9 -71 -30 -68 -26 3 2 40 -1 52 -12 52 -8 0 -17
-10 -21 -22z"/>
<path d="M2526 684 c-22 -22 -23 -134 -1 -134 8 0 15 9 15 19 0 30 16 33 28 6
7 -16 17 -23 27 -19 18 7 18 9 4 36 -8 14 -8 23 0 31 15 15 14 50 -1 65 -17
17 -54 15 -72 -4z m54 -28 c0 -2 -7 -9 -15 -16 -12 -10 -15 -10 -15 4 0 9 7
16 15 16 8 0 15 -2 15 -4z"/>
<path d="M2708 693 c-15 -4 -18 -16 -18 -74 0 -67 1 -69 25 -69 38 0 75 42 75
84 0 53 -28 73 -82 59z m44 -64 c-3 -23 -18 -47 -26 -38 -2 2 -1 19 1 37 6 37
30 38 25 1z"/>
<path d="M2816 684 c-22 -22 -23 -134 -1 -134 8 0 15 9 15 19 0 30 16 33 28 6
7 -16 17 -23 27 -19 18 7 18 9 4 36 -8 14 -8 23 0 31 15 15 14 50 -1 65 -17
17 -54 15 -72 -4z m54 -28 c0 -2 -7 -9 -15 -16 -12 -10 -15 -10 -15 4 0 9 7
16 15 16 8 0 15 -2 15 -4z"/>
<path d="M2927 693 c-4 -3 -7 -37 -7 -75 l0 -68 45 0 c38 0 45 3 45 20 0 16
-7 20 -31 20 -17 0 -28 4 -24 10 3 6 15 10 26 10 10 0 19 7 19 15 0 8 -9 15
-20 15 -30 0 -24 18 7 22 17 2 29 10 31 21 3 14 -4 17 -41 17 -24 0 -47 -3
-50 -7z"/>
<path d="M3059 656 c-10 -24 -22 -58 -25 -75 -6 -26 -4 -31 14 -31 11 0 22 7
26 15 3 8 10 15 16 15 5 0 10 -7 10 -15 0 -11 12 -15 45 -15 35 0 45 4 45 16
0 13 3 14 14 5 11 -10 17 -8 25 6 9 16 10 16 11 -4 0 -16 6 -23 20 -23 19 0
21 5 18 72 -3 81 -18 97 -44 46 l-17 -33 -9 28 c-6 17 -17 27 -29 27 -15 0
-19 -8 -20 -42 -3 -69 -4 -76 -10 -82 -4 -4 -9 17 -13 45 -13 99 -45 117 -77
45z m41 -36 c0 -5 -5 -10 -11 -10 -5 0 -7 5 -4 10 3 6 8 10 11 10 2 0 4 -4 4
-10z"/>
<path d="M3318 689 c-25 -14 -24 -65 2 -79 27 -14 26 -32 -2 -28 -32 5 -34
-20 -2 -28 35 -9 58 6 62 39 2 18 -3 29 -17 37 -12 6 -21 18 -20 28 0 10 3 12
6 5 8 -20 33 -15 33 6 0 28 -31 38 -62 20z"/>
</g>
</svg>
